<mxfile host="Electron" agent="Mozilla/5.0 (X11; Linux x86_64) AppleWebKit/537.36 (KHTML, like Gecko) draw.io/26.0.9 Chrome/128.0.6613.186 Electron/32.2.5 Safari/537.36" version="26.0.9">
  <diagram name="Page-1" id="m2eH3qFYMNVrzsVoYGrm">
    <mxGraphModel dx="1434" dy="831" grid="1" gridSize="10" guides="1" tooltips="1" connect="1" arrows="1" fold="1" page="1" pageScale="1" pageWidth="850" pageHeight="1100" math="0" shadow="0">
      <root>
        <mxCell id="0" />
        <mxCell id="1" parent="0" />
        <mxCell id="V7XJXj2m__NSO1Vk86pW-26" style="edgeStyle=orthogonalEdgeStyle;rounded=0;orthogonalLoop=1;jettySize=auto;html=1;" edge="1" parent="1" source="V7XJXj2m__NSO1Vk86pW-1" target="V7XJXj2m__NSO1Vk86pW-4">
          <mxGeometry relative="1" as="geometry" />
        </mxCell>
        <mxCell id="V7XJXj2m__NSO1Vk86pW-1" value="" style="shape=image;verticalLabelPosition=bottom;labelBackgroundColor=default;verticalAlign=top;aspect=fixed;imageAspect=0;image=https://cccloudstorage.blob.core.windows.net/images/MQTT%202(1).png;" vertex="1" parent="1">
          <mxGeometry x="510" y="200" width="78" height="60" as="geometry" />
        </mxCell>
        <mxCell id="V7XJXj2m__NSO1Vk86pW-4" value="" style="shape=image;verticalLabelPosition=bottom;labelBackgroundColor=default;verticalAlign=top;aspect=fixed;imageAspect=0;image=data:image/png,iVBORw0KGgoAAAANSUhEUgAAASwAAAEsCAMAAABOo35HAAAAIGNIUk0AAHomAACAhAAA+gAAAIDoAAB1MAAA6mAAADqYAAAXcJy6UTwAAAA2UExURQAAAPFaKPBaKPBaKPBaKPBaKPFaKO1cKPBaKPBaKPBaKPBaKPBaKPBaKPFaKPBaKPBaKP///134uEkAAAAQdFJOUwAYqTpd7ycMg95Md73Oa5brZc2nAAAAAWJLR0QR4rU9ugAAAAd0SU1FB+kCHAwTE3HbooUAAA9VSURBVHja7V1XgusgDFz3Epfc/7Rvsynr2AZURoa89Xyn2AJGIyHE19eJEydO+JHlRexH+BiU1fWa17Gf4iPQ5NcftLEf5ANQd9cHunMtBtBfF7jEfpq00V7fMDSxHyhdPOnqF93J8w4043WD6iSuXWTddQ+ntXbgsNU5t3bgstVprS3ctjqttcYety+sdfrEJfKrF10W+wETQnsNYDzV6RN9yFbXax77GVNBVoWNdcaJDwwEW53i9I4gYT1oK/ZzpoCaZqtzId4wUo11PfXDRLbV6RFJnvDk+Dtmhq3+OsdnHFtdr33s542KnGesIfbzxgRzYl2vfzn9QNSjv/jDDrHhuMI7/q7WKtm2+sMynhZBv6GL/cyxwKb3G8a5LP5iJpAR6azn1zCR/GJTlJd5GMfuhxzn2C+sAVNkrQ029/4ZVrTrZf7BwsO3+0XEcHGFi8W88+ufKjyaiZ6a8aIa2oL8458oPLJJ4Ad9BpuX9spmp3z7PNbqdVy1j659EFLjy2NUn+VHs4ueqRwYy+ZevOvBFPv9GTCZVIuJM4dG4nPSFiWI0zX4DIpvLvyo2QCfsA6bNglTfcI6TMZU37QW2xYhpLEAH4iwQ/QdobZzPtyQ5/PcXvrCRZ29mVYQ4ciEWNNf8kcQv0H3HaqtVV+N1ep6HBUfNn0bfvXxLRnATrKb45C9x+xCV0l5ebdXkYCwWsOe4fmR781e6U2rG2xladPKJkhaxP6CZQawnlNy/AAYagdyqdnHwLBeooj9bnCUdsYiVF1/GAyNJdg0ThyGxpLv7aUKQ4I/jcXAJfa7wWEoSv87Y1mGO/+dsSxTpbE5axyGub2hLL7RX25JtE4TU1jus0Yz1nhLKDr3RLN+mgdR8Gm5YxFBZ1VDXhJZuLjk3FlmeYT4YGN17roYF+qSF+obWuvAcKcKFVy5UQS3og+x1mGB9HjRCaCiJdvLzFqiuk82XjUwOntR16PVYf7G3lLv1VU69LT0t9Vhfus86QDOAmSk3W8jaWq6QVO1BguioVTr2GhTy4qq3CqoLcKr0UScsk5PsjBY7rP0wdllkaqxinfMe0WWASlh4RKNVOkRXUgD1TsGJG8itMZjzjpkfuoyGDAD7XBcc1v/WsQzAbxm6NDOtv6yeDhtod1hfnDhfuFZGnDawiZpquO7DTQeqYhWW1CGj9OPznPsAu1pgKVDsbrR1U6Jii4ExJFWvPN+bp4HF+TCZGnUs5G9YymCPSIqpRX56oDaQSfgIcQoregHI12NY7GyDxJLR7fVt7X2Rx3bKgIhHtI4y72vuLAcr8+WpnIYa9daWI5XV4ekcxfFrrWgFKFdh10ytnJYC6rjlf4wqU4de9aCMqpOlxqWvEqwN/LQ4dRkANNwhL/Y01vQZ1ScWUqvlXuzo+WRU0tO8SleqbDTMgjqEMWph8QI6456SytIrSU98JSKGl1h67GgYb5wGz/BRfiDTbwLLfmWTa10mz9ueAXKFxLWSrn341puQQmD1Yz8gZR7km/eBxpO87UWPIfVFHfUNeDN1uWyUIpnN/dFpj6yvs3Htweoqm7M56mQ/8lq9LGcwd1uRQ1VVnortyt+7fwDK9rCkgYv+YBpsFfQGiUMk2CGrTw8ljVq1kIETKyec3himNij857VBJ+u4yxE9cQStDJl32v+/g9g583wiEo9msmabwy8wpN3jwj23vTTKcqJJW9Q1rGk+JvUBmtouoxXTaxQ8SzOXO96CBvJ0sdbobEy9RZ4R1+MbzQMLdei5+IVeVpIi8CRTNZLjofGh/RVKHYs+mn1HC7qadjFd6DigTzm4hqxHlccXRFpc5mpA4oHui+ULn5sM7eBNLmWOh6YfyO/ilA3ZOgjaBXJLy7IBbglRn4XmbrjRVM0UArJF1tXONKi74eJlr6FrWgnXxYrBpZVIkeGovGxsRWp8n4xC2Bl+uQNHskqtLLVlZL++GUtmCwlv45gFRraikDbvw4RFUuTN8MEqxBwB48PQWU+kD9JBJmy+KPTWPcVDpUevuI4lDskUxafJO1be4es9RotUM0PdaXwB+eIvlOByqfXI2ACHrLKYqtgYhRVPdqOCZuN+dnoldfC7OKT0zPcv2vCU/a22/UmF+ty5ifovU/xVA+Y6JAcGHJFcCjvU837JNj09MZGP/A6noLyITKo/M5NZPsXoctSzy+ztjW8s6ajzD8qqE/FHRrfcqouQefUlAxX6mPvx8qBCC0yvzMpy+cJW5ofJ3SeeRrfQxEPzQ3Z4SHzO2+HxFNtwuiUQb6uxicg7lMcokqpWoj5Z263wdv9p+5yeCjpsZePMBZ1r4JHkM7FzW5pkBEdkJslHusQIeGpvMCbEK4h6ATbnbS576Gt+1pGpP+ozpA1I1zHr0fRExck5nK7uxllLPKpctZ/OSaDVOvQNjyc+b0eZSxqMovH7/tTQaELKcTlXIj3CQGod6AqB9bu6v6Pqo5yUoIy52AMIGNRlQNrVuyfWNY9LcVaLiH/Ix703pB8RRoraN91Gtr9FcKBbhfH30rj1TsWNf3gDifY2V2F+hQJYW65plY2aXN/GecgCufP9oYA0XUo/LxmlxxOrLwkh3Aq5fedCAtom5Zn3GtCGfS4l8jCnDMIHzMyOQbJbX/BkVk7v405Z0DJ6uOPYPGr8DjZoJ0fh22eB2kL3hKg5m8Tc5hzu1ZQE4uyCQI+YiupWGRwwU4ABay7Cy5E7AEBUbcexuzeUVnIDhAhaQittZX1JmAYq9V8OYygR8Sph0ZYfcB43+3QY8VPaGXAhkZcCct4gs1woO+HC3A8ypvIq6UYxhoV3yUhNLUwVQ2KyjLGC284Bd2IJXSmGzI4msoyxgNsvnt0v3HEsldV4dGNtUnq46+0DKXCASGP6u4YurEy+VfJCNCJPmrXnZ6hK/iNsQy6CQcoXp3VUrbKpwfSG2MZ3BoUWodKltSWo9OJZ2Msi3xc4G2Uf6kusaYrvfU3LZr8BPhXt/L1x/3omY9K/E06AqSiypcCrsmkz+y1q7IwVoC0NGqFUDYcBJ2m17GhScO7AGkpGB5xOx89p7bW1yaNyQLJE/l/Qi7YodPAWgSZ7E4FIh6xXGH3EtsFnQbWY2PS0DQgS8W5ZdCNMWQaWJOvyX0ggdUiDbGkXVvXoK+m1Uw26VcdqJSSagfUKTb6BFn5E5M2nYEpIPxP2E1E9MFal3xZXCMWWi+yX8UduxW/iMX9uyFjifLwwHv56NplFYhaFGuY5B2A57nppHXAOgwZSxI2IC98pKfU1lkag67VFsaCHn6nTxB7fxhKDQjiHUC2YQG6FF//L57iQ05eMLOw99vLN1pxJUdPhPiFbyz0vdr0dbh+F3ib79CuNN9Y2HZorNW0Jkt0niYU8PKNhe4Dw9hiWnMK+laxUBDHNhb+dnvGI6zfBhxOh+YBX9rBu5swqGcjhKBiK3jwT/CbaNLieLXNSCEzpsH0gORH0ffbc7KeG1oBWivkDGUyGKu0WFUE22ownDYNvZaw2gFsLc7s2MYPMLkV3FYQjgvWWqx0y9bBMPpf8IYBZS0sb7HU5dbB0FrX8n93C+E+CdQn8jJ5O0Q8ACYXKZkitJb6BuQleD5t769np2Is8qElyEmi2hZaC9hfnOto9tIDVb67mPsfsUEIjKhiW8hbtJ4bNDBZZ18/jtNqNRavbmzh3yenNIXhO7DJODc55RyoMW/7n+vUpjZfTP3gfKBvG0vD9wYnIbhqqeH546ADYDgscfhewoiL7c/I3SOulFXIoRRxiFWjlqIgmKAe9Se012LtWCluF0TpU0G6pWkp5qLcfMIbckWExVkPPkiEZRPkGtL1adziDY0GxghUWVRf+5q1VjNtxXCrglQpWm73i31IZ3fhuCtzLIlenr8VqguvIGtRHhBn5Tws+asaBkZbHf5Qa7P/PcBcyng4K/ry0t5UKe/Jj39ShLk6ixq1ICRhGyDlqDaXSY+cAETZJkjxAK8z9hYmlbVeCIuJMcXlrM7YWxjUXfkhfFrYGsgmhb0sqkU9EG8aA2sHmimXrkeT0xMuhFuNuQA+EVNM/LsjjraWfAnAK56+R67vSdFuJGsp9l1Mzi1IaOEoa6lKPk3OPEpKdo/xiboT8UYjKhhAA0YA28rsEQUJwtB9XdFtZdbsVeKgZT3xbZ/pDUYMLzuVUZkchH7ZSrvraTiYok0zQzGvtpUlqcomPe0ibAEEXVXfYDvrhTFYZTO5tHUalA0jFaTRvYH2U9ZLdTZtvJcQe5/wfWk8SDuFPk11SHghPlndQQlCR1fHmOpLU4kK5AjNHmfX2vL6EopePxXxQr4QNKUZgz1VvT2qwglVlFrH0GhJmb0a2t48/FpD1xCCVLbgQcmd2VXfX6a+qA+30x3KkhvNSij5K/Dg7YANtEUR3UW2GiU7mmZ3yFABaOg2UOs9XsiY1yLfobxaCwFtFulurwv9RcT7mIfuMjkAanVQ5RPBYPUkFnfH743vAdYj6dp9e3TPqEyzYs2jD2BLgezP8lP5PpV9//LvWV30U5trS1SO0+oBwM9Z4xFbNfwCf4QfjTQI6wfJz6xUCOsGVMtAKySgsF4g35wcC8emF/zAaYf/31bwxhBgpOMIb4C2doPj8DpNL9KmrCMqUhhImrISs1XSKsukwbUGCfN7Wtx+Q7r8nkIGawVgPwgsktJXd6TqDI0LY2RANd4Ho0soHvwFtoMuCtZFmUIkKbNSk1dPJCizCI0fTmM9AGrtZgFo4y2IrWJb5JOMlVC+/TSWBslxVqqe8AbsFisAyWUaUjZWeqmGXyQnSlOMCZ9ILtxJM9C5I7W9e/zN8EjEts4KMTq60IG+BUOJlJ2hqNLB0r4p87tkw6LXNWzxI6GCmR1wJfxwH/uml/UfCf16bHP4wdQOS81oYLCUJekXc8diezYz6y/v/f10SFll3UCfHKOTfZuibPNRb7PEVyGd4SkHIbNyaud8+AXTfgnuq76DFh0Kz4zyGBF/7x8alIBnFA85K7mYtiL9QVAz5RqlyFFkqdP7V2jwB+EpuScaugNJOUn6hHsdVnmpH2x665QPmFgu8TCiDrdTrfUJE2sn4rmd7wIOM9FaHzGxvpqnGupuZ7p6/IltEm99gCs8BoTbU1I6oBMbwYtbkq0GiYHAHUqfwe7HwafnzkW4hueyiLSzyXHgusjo9IR7yC575kq5Jisupo1EVVxg9f9j3TTkVA1evF38lNaRwiRRPC8/OBUWDcU05ymXRZ44cUKLf8d6/6htPgjOAAAAJXRFWHRkYXRlOmNyZWF0ZQAyMDI1LTAyLTI4VDEyOjE5OjE5KzAwOjAwDXR9MQAAACV0RVh0ZGF0ZTptb2RpZnkAMjAyNS0wMi0yOFQxMjoxOToxOSswMDowMHwpxY0AAAAodEVYdGRhdGU6dGltZXN0YW1wADIwMjUtMDItMjhUMTI6MTk6MTkrMDA6MDArPORSAAAAAElFTkSuQmCC;" vertex="1" parent="1">
          <mxGeometry x="710" y="390" width="60" height="60" as="geometry" />
        </mxCell>
        <mxCell id="V7XJXj2m__NSO1Vk86pW-9" value="" style="group" vertex="1" connectable="0" parent="1">
          <mxGeometry x="60" y="470" width="280" height="310" as="geometry" />
        </mxCell>
        <mxCell id="V7XJXj2m__NSO1Vk86pW-5" value="" style="verticalLabelPosition=bottom;html=1;verticalAlign=top;align=center;shape=mxgraph.floorplan.room;fillColor=strokeColor;" vertex="1" parent="V7XJXj2m__NSO1Vk86pW-9">
          <mxGeometry y="30" width="280" height="280" as="geometry" />
        </mxCell>
        <mxCell id="V7XJXj2m__NSO1Vk86pW-6" value="&lt;b&gt;Room2&lt;/b&gt;" style="text;html=1;align=center;verticalAlign=middle;resizable=0;points=[];autosize=1;strokeColor=none;fillColor=none;" vertex="1" parent="V7XJXj2m__NSO1Vk86pW-9">
          <mxGeometry x="107.5" width="60" height="30" as="geometry" />
        </mxCell>
        <mxCell id="V7XJXj2m__NSO1Vk86pW-7" value="" style="shape=image;verticalLabelPosition=bottom;labelBackgroundColor=default;verticalAlign=top;aspect=fixed;imageAspect=0;image=https://cdn-icons-png.flaticon.com/512/4158/4158502.png;" vertex="1" parent="V7XJXj2m__NSO1Vk86pW-9">
          <mxGeometry x="110" y="142.5" width="55" height="55" as="geometry" />
        </mxCell>
        <mxCell id="V7XJXj2m__NSO1Vk86pW-8" value="Sensor2" style="text;html=1;align=center;verticalAlign=middle;resizable=0;points=[];autosize=1;strokeColor=none;fillColor=none;" vertex="1" parent="V7XJXj2m__NSO1Vk86pW-9">
          <mxGeometry x="97.5" y="197.5" width="70" height="30" as="geometry" />
        </mxCell>
        <mxCell id="V7XJXj2m__NSO1Vk86pW-10" value="" style="group" vertex="1" connectable="0" parent="1">
          <mxGeometry x="60" y="820" width="280" height="310" as="geometry" />
        </mxCell>
        <mxCell id="V7XJXj2m__NSO1Vk86pW-11" value="" style="verticalLabelPosition=bottom;html=1;verticalAlign=top;align=center;shape=mxgraph.floorplan.room;fillColor=strokeColor;" vertex="1" parent="V7XJXj2m__NSO1Vk86pW-10">
          <mxGeometry y="30" width="280" height="280" as="geometry" />
        </mxCell>
        <mxCell id="V7XJXj2m__NSO1Vk86pW-12" value="&lt;b&gt;Room3&lt;/b&gt;" style="text;html=1;align=center;verticalAlign=middle;resizable=0;points=[];autosize=1;strokeColor=none;fillColor=none;" vertex="1" parent="V7XJXj2m__NSO1Vk86pW-10">
          <mxGeometry x="107.5" width="60" height="30" as="geometry" />
        </mxCell>
        <mxCell id="V7XJXj2m__NSO1Vk86pW-13" value="" style="shape=image;verticalLabelPosition=bottom;labelBackgroundColor=default;verticalAlign=top;aspect=fixed;imageAspect=0;image=https://cdn-icons-png.flaticon.com/512/4158/4158502.png;" vertex="1" parent="V7XJXj2m__NSO1Vk86pW-10">
          <mxGeometry x="110" y="142.5" width="55" height="55" as="geometry" />
        </mxCell>
        <mxCell id="V7XJXj2m__NSO1Vk86pW-14" value="Sensor3" style="text;html=1;align=center;verticalAlign=middle;resizable=0;points=[];autosize=1;strokeColor=none;fillColor=none;" vertex="1" parent="V7XJXj2m__NSO1Vk86pW-10">
          <mxGeometry x="97.5" y="197.5" width="70" height="30" as="geometry" />
        </mxCell>
        <mxCell id="V7XJXj2m__NSO1Vk86pW-15" value="" style="group" vertex="1" connectable="0" parent="1">
          <mxGeometry x="60" y="140" width="280" height="310" as="geometry" />
        </mxCell>
        <mxCell id="V7XJXj2m__NSO1Vk86pW-16" value="" style="verticalLabelPosition=bottom;html=1;verticalAlign=top;align=center;shape=mxgraph.floorplan.room;fillColor=strokeColor;" vertex="1" parent="V7XJXj2m__NSO1Vk86pW-15">
          <mxGeometry y="30" width="280" height="280" as="geometry" />
        </mxCell>
        <mxCell id="V7XJXj2m__NSO1Vk86pW-17" value="&lt;b&gt;Room1&lt;/b&gt;" style="text;html=1;align=center;verticalAlign=middle;resizable=0;points=[];autosize=1;strokeColor=none;fillColor=none;" vertex="1" parent="V7XJXj2m__NSO1Vk86pW-15">
          <mxGeometry x="107.5" width="60" height="30" as="geometry" />
        </mxCell>
        <mxCell id="V7XJXj2m__NSO1Vk86pW-18" value="" style="shape=image;verticalLabelPosition=bottom;labelBackgroundColor=default;verticalAlign=top;aspect=fixed;imageAspect=0;image=https://cdn-icons-png.flaticon.com/512/4158/4158502.png;" vertex="1" parent="V7XJXj2m__NSO1Vk86pW-15">
          <mxGeometry x="110" y="142.5" width="55" height="55" as="geometry" />
        </mxCell>
        <mxCell id="V7XJXj2m__NSO1Vk86pW-19" value="Sensor1" style="text;html=1;align=center;verticalAlign=middle;resizable=0;points=[];autosize=1;strokeColor=none;fillColor=none;" vertex="1" parent="V7XJXj2m__NSO1Vk86pW-15">
          <mxGeometry x="102.5" y="197.5" width="70" height="30" as="geometry" />
        </mxCell>
        <mxCell id="V7XJXj2m__NSO1Vk86pW-20" style="edgeStyle=orthogonalEdgeStyle;rounded=0;orthogonalLoop=1;jettySize=auto;html=1;" edge="1" parent="1" source="V7XJXj2m__NSO1Vk86pW-16" target="V7XJXj2m__NSO1Vk86pW-1">
          <mxGeometry relative="1" as="geometry" />
        </mxCell>
        <mxCell id="V7XJXj2m__NSO1Vk86pW-21" style="edgeStyle=orthogonalEdgeStyle;rounded=0;orthogonalLoop=1;jettySize=auto;html=1;entryX=0;entryY=0.5;entryDx=0;entryDy=0;" edge="1" parent="1" source="V7XJXj2m__NSO1Vk86pW-5" target="V7XJXj2m__NSO1Vk86pW-1">
          <mxGeometry relative="1" as="geometry" />
        </mxCell>
        <mxCell id="V7XJXj2m__NSO1Vk86pW-22" style="edgeStyle=orthogonalEdgeStyle;rounded=0;orthogonalLoop=1;jettySize=auto;html=1;entryX=0;entryY=0.5;entryDx=0;entryDy=0;" edge="1" parent="1" source="V7XJXj2m__NSO1Vk86pW-11" target="V7XJXj2m__NSO1Vk86pW-1">
          <mxGeometry relative="1" as="geometry" />
        </mxCell>
        <mxCell id="V7XJXj2m__NSO1Vk86pW-23" value="Sensors to measure the Temperature of the Rooms" style="text;html=1;align=center;verticalAlign=middle;resizable=0;points=[];autosize=1;strokeColor=none;fillColor=none;" vertex="1" parent="1">
          <mxGeometry x="50" y="100" width="300" height="30" as="geometry" />
        </mxCell>
        <mxCell id="V7XJXj2m__NSO1Vk86pW-24" value="MQTT to catch the data in a&amp;nbsp;&lt;div&gt;structure of topics&lt;/div&gt;" style="text;html=1;align=center;verticalAlign=middle;resizable=0;points=[];autosize=1;strokeColor=none;fillColor=none;" vertex="1" parent="1">
          <mxGeometry x="459" y="260" width="180" height="40" as="geometry" />
        </mxCell>
        <mxCell id="V7XJXj2m__NSO1Vk86pW-27" value="Grafana to visualize our Data" style="text;html=1;align=center;verticalAlign=middle;resizable=0;points=[];autosize=1;strokeColor=none;fillColor=none;" vertex="1" parent="1">
          <mxGeometry x="650" y="460" width="180" height="30" as="geometry" />
        </mxCell>
      </root>
    </mxGraphModel>
  </diagram>
</mxfile>
